<?xml version="1.0" standalone="no"?>
<!DOCTYPE svg PUBLIC "-//W3C//DTD SVG 20010904//EN"
 "http://www.w3.org/TR/2001/REC-SVG-20010904/DTD/svg10.dtd">
<svg version="1.0" xmlns="http://www.w3.org/2000/svg"
 width="512.000000pt" height="512.000000pt" viewBox="0 0 512.000000 512.000000"
 preserveAspectRatio="xMidYMid meet">
<metadata>
Created by potrace 1.11, written by Peter Selinger 2001-2013
</metadata>
<g transform="translate(0.000000,512.000000) scale(0.100000,-0.100000)"
fill="#000000" stroke="none">
<path d="M17 5113 c-12 -11 -8 -23 8 -23 8 0 19 -9 25 -20 6 -11 15 -20 20
-20 18 0 10 22 -16 46 -28 27 -28 27 -37 17z"/>
<path d="M3607 5113 c-13 -13 -7 -32 8 -27 8 4 15 12 15 20 0 15 -12 19 -23 7z"/>
<path d="M3810 5080 c0 -5 5 -10 10 -10 6 0 10 5 10 10 0 6 -4 10 -10 10 -5 0
-10 -4 -10 -10z"/>
<path d="M3620 5057 c0 -10 8 -17 18 -17 9 0 13 4 7 8 -5 4 -13 11 -17 16 -5
5 -8 2 -8 -7z"/>
<path d="M3465 5050 c-3 -5 1 -10 10 -10 9 0 13 5 10 10 -3 6 -8 10 -10 10 -2
0 -7 -4 -10 -10z"/>
<path d="M2569 5028 c-25 -21 -45 -60 -59 -115 -10 -37 -19 -53 -30 -53 -9 0
-25 -6 -36 -14 -16 -13 -17 -18 -6 -36 11 -18 11 -25 -3 -46 -8 -13 -28 -31
-43 -40 -15 -9 -39 -25 -54 -35 -15 -11 -30 -19 -33 -19 -10 0 -5 56 6 67 8 8
4 15 -12 27 -35 24 -70 19 -103 -14 -34 -35 -41 -35 -64 3 -14 22 -14 31 -4
47 6 11 12 22 12 24 0 8 -31 36 -40 36 -15 0 -32 -40 -24 -58 11 -28 13 -63 3
-56 -7 4 15 -55 28 -75 1 -2 10 2 18 9 13 11 20 9 40 -10 19 -18 22 -26 14
-36 -17 -21 -3 -47 21 -39 14 4 20 2 20 -8 0 -9 6 -17 13 -20 9 -4 9 -7 -1
-18 -11 -11 -19 -10 -55 9 -53 28 -82 28 -101 0 -20 -28 -20 -38 -2 -38 22 0
30 -19 11 -26 -29 -11 -115 44 -115 74 0 7 -9 25 -20 39 -11 14 -20 31 -20 38
0 7 -6 15 -14 18 -14 6 -56 -2 -56 -10 0 -19 41 -72 123 -156 29 -30 35 -42
27 -52 -9 -11 -7 -12 8 -8 16 4 20 -2 25 -31 3 -20 1 -51 -5 -69 -11 -33 -58
-106 -69 -107 -3 0 -18 27 -34 61 -26 53 -28 62 -15 72 19 15 51 83 43 91 -10
10 -41 7 -49 -5 -3 -6 0 -15 7 -20 10 -6 11 -11 3 -19 -9 -9 -17 -8 -33 2 -19
11 -24 11 -36 -5 -12 -17 -14 -16 -34 9 -13 16 -19 35 -16 46 5 13 1 18 -14
18 -25 0 -25 1 -5 -41 21 -42 53 -79 70 -79 6 0 14 -10 17 -22 10 -39 20 -168
14 -168 -4 0 -20 13 -36 29 -29 28 -36 50 -46 135 -2 26 -14 49 -36 72 -30 31
-31 36 -24 81 9 62 8 86 -10 156 -8 32 -15 67 -15 77 0 28 -26 45 -45 30 -22
-18 -14 -79 14 -119 13 -18 22 -33 20 -34 -2 -1 -25 -13 -51 -27 -27 -13 -48
-29 -49 -35 -3 -24 4 -61 13 -72 5 -7 7 -17 3 -23 -7 -11 -76 -14 -121 -4 -31
7 -83 62 -68 72 13 10 34 73 28 83 -3 5 -23 9 -44 9 -44 0 -54 -12 -65 -75 -4
-22 -16 -67 -28 -100 -22 -66 -28 -184 -13 -268 l9 -49 -30 16 c-27 13 -32 13
-52 0 -19 -13 -21 -13 -21 0 0 10 -12 16 -37 18 l-38 3 0 55 c0 65 -8 80 -40
80 -29 0 -68 46 -60 71 7 21 -6 31 -25 18 -8 -5 -12 -9 -8 -9 4 0 0 -16 -8
-35 -17 -42 -18 -97 -2 -142 10 -28 9 -42 -6 -87 -23 -68 -23 -88 -2 -207 16
-84 16 -104 5 -155 -8 -36 -14 -51 -17 -37 -2 12 -10 27 -18 33 -8 7 -14 22
-14 34 0 30 -19 46 -54 46 -52 0 -78 -11 -72 -29 28 -86 32 -91 73 -113 24
-13 43 -26 43 -29 0 -3 -9 -14 -20 -24 -19 -17 -21 -17 -46 9 -42 41 -96 28
-78 -19 4 -10 0 -15 -15 -15 -13 0 -29 15 -47 45 -14 25 -30 45 -35 45 -5 0
-9 6 -9 14 0 17 -54 58 -64 49 -16 -16 -5 -79 18 -101 22 -20 24 -21 31 -5 6
16 9 15 27 -7 11 -14 35 -42 54 -64 56 -63 44 -127 -35 -199 -54 -49 -56 -78
-3 -41 12 8 28 14 35 11 6 -2 17 8 23 23 9 20 21 29 45 32 20 3 37 1 42 -6 8
-12 4 -61 -8 -88 -5 -13 -3 -18 9 -18 9 0 23 16 31 37 14 34 14 41 -5 97 -24
71 -25 92 -5 100 8 3 12 11 10 18 -3 8 5 25 17 38 l23 25 3 -23 c3 -18 8 -21
24 -16 17 5 19 3 13 -16 -4 -13 -1 -28 8 -38 53 -60 49 -280 -8 -392 -55 -107
-136 -144 -192 -87 -15 14 -24 30 -19 34 9 10 76 12 71 2 -11 -17 77 -2 96 18
19 18 19 24 9 64 -29 110 -79 139 -170 100 -71 -31 -75 -29 -89 37 -6 31 -16
75 -21 98 -5 22 -6 50 -3 63 5 19 -34 111 -47 111 -3 0 -20 -14 -38 -31 -28
-26 -33 -37 -27 -58 3 -14 7 -39 9 -56 1 -16 3 -38 4 -47 2 -21 28 -24 35 -5
3 7 6 5 6 -6 1 -9 5 -25 10 -35 5 -9 14 -52 20 -95 11 -78 51 -195 77 -226 8
-9 28 -31 44 -49 17 -18 30 -37 30 -42 0 -6 6 -10 14 -10 8 0 16 -7 20 -15 3
-8 14 -15 24 -15 10 0 28 -13 40 -30 13 -16 29 -30 37 -30 8 0 26 -16 41 -35
14 -19 30 -32 35 -30 11 7 69 -54 69 -71 0 -8 7 -14 15 -14 8 0 15 -4 15 -10
0 -5 11 -20 24 -33 12 -13 25 -30 28 -38 4 -12 12 -12 49 -2 28 7 48 8 55 2 8
-6 14 -4 18 6 4 11 13 14 26 10 14 -4 20 -2 20 8 0 13 45 21 100 18 93 -7 110
-6 110 7 0 10 7 8 25 -6 14 -11 43 -20 67 -22 24 -1 52 -2 63 -3 11 -1 29 -9
40 -19 11 -11 29 -18 41 -16 11 1 32 -5 47 -15 32 -21 37 -21 37 -2 0 27 41
16 73 -20 17 -19 38 -35 47 -35 21 0 70 -23 70 -32 0 -5 7 -8 15 -8 7 0 18 -8
23 -17 5 -9 25 -24 43 -33 19 -9 33 -22 31 -28 -1 -7 6 -12 17 -12 30 0 41
-22 62 -125 22 -114 24 -212 3 -315 -8 -41 -17 -99 -21 -127 -3 -29 -11 -57
-17 -62 -6 -5 -47 -12 -91 -15 -218 -16 -502 -69 -745 -138 -58 -16 -123 -34
-145 -40 -22 -5 -49 -13 -60 -18 -11 -4 -47 -18 -80 -30 -248 -91 -465 -193
-653 -304 -162 -96 -303 -196 -278 -196 3 0 31 16 61 36 71 45 227 125 233
119 3 -2 -1 -11 -8 -20 -20 -25 5 -18 39 11 17 14 29 30 26 34 -6 9 25 30 44
30 6 0 8 -7 5 -15 -5 -13 -2 -13 27 -1 19 7 43 17 54 21 11 4 28 7 37 6 12 -2
18 5 18 19 0 17 -4 20 -22 15 -16 -5 -13 0 10 14 18 12 37 21 43 21 5 0 24 7
41 16 30 16 31 15 25 -6 -8 -30 15 -20 31 14 10 21 17 25 27 16 15 -12 65 3
65 20 0 6 8 9 18 6 21 -7 92 19 92 33 0 5 9 7 20 4 12 -3 28 2 38 10 11 10 27
14 39 11 16 -4 29 2 47 21 24 26 29 27 82 20 50 -6 57 -4 71 15 11 15 18 18
27 11 9 -7 16 -7 23 0 8 8 17 8 31 0 30 -16 37 -14 51 15 9 21 14 24 25 15 8
-7 25 -9 39 -6 14 4 28 2 32 -5 5 -8 11 -6 20 6 7 10 21 18 31 19 11 1 25 4
33 6 10 3 17 -8 22 -36 4 -22 9 -46 11 -54 5 -22 -39 -23 -111 -2 l-66 20 33
-27 c23 -19 31 -33 26 -45 -3 -10 -1 -17 5 -17 6 0 11 9 11 19 0 18 3 19 43 7
29 -9 42 -18 41 -29 -1 -10 5 -17 16 -17 25 0 28 -22 13 -107 -13 -77 -49
-173 -65 -173 -5 0 -22 7 -37 14 -44 23 -204 77 -210 70 -3 -3 10 -17 29 -32
19 -15 44 -38 55 -51 43 -51 69 -71 101 -77 18 -3 40 -15 50 -25 13 -14 20
-16 30 -8 11 9 15 7 20 -5 3 -9 14 -16 25 -16 10 0 30 -5 44 -12 19 -9 31 -8
49 1 14 8 36 10 55 6 47 -10 42 -45 -15 -109 -26 -28 -56 -70 -67 -94 -12 -23
-24 -42 -27 -42 -3 0 -20 10 -38 23 l-31 23 32 35 c36 38 71 89 65 95 -2 2
-21 -14 -41 -35 -38 -40 -84 -62 -73 -35 3 8 9 20 12 28 7 17 -50 51 -67 40
-6 -4 -9 -20 -5 -38 l6 -31 -20 24 c-23 26 -24 39 -10 77 15 38 5 42 -14 5
-22 -41 -20 -83 4 -113 10 -14 17 -28 13 -32 -3 -3 6 -17 20 -30 15 -14 27
-32 27 -40 0 -22 33 -76 48 -76 6 0 12 -7 12 -16 0 -8 4 -13 9 -10 16 10 39
-29 46 -79 11 -89 27 -149 48 -184 17 -28 18 -35 6 -43 -11 -7 -11 -11 -1 -15
6 -2 12 -11 12 -19 0 -8 10 -14 23 -14 13 0 32 -9 42 -20 20 -22 44 -28 27 -7
-10 12 -37 111 -61 222 -5 22 -7 75 -5 119 4 76 6 80 41 112 21 19 42 33 48
31 5 -2 13 -34 18 -71 7 -63 20 -130 52 -266 14 -57 50 -159 79 -220 l16 -35
-6 50 c-45 361 -42 727 6 766 10 9 29 51 42 95 12 44 31 89 41 101 11 12 17
27 15 34 -2 6 9 24 24 40 15 15 28 38 28 51 0 14 14 38 35 58 l35 34 -2 -49
c-1 -28 2 -69 6 -93 7 -39 70 -187 130 -302 37 -72 51 -136 37 -167 -15 -32
-26 -19 -36 38 -5 26 -18 46 -49 72 -37 30 -45 44 -51 84 -7 51 -53 128 -104
177 -30 28 -56 33 -29 5 48 -49 117 -192 99 -204 -4 -2 -16 10 -26 26 -24 35
-32 36 -47 4 -8 -18 -8 -32 2 -55 18 -42 3 -52 -72 -47 -32 2 -58 0 -58 -4 0
-13 73 -33 128 -34 34 -1 57 -7 63 -16 7 -11 12 -12 28 -2 35 22 40 -23 14
-132 -14 -61 -22 -76 -64 -115 -26 -25 -51 -58 -55 -74 -8 -34 30 -179 57
-214 10 -13 15 -30 12 -38 -3 -8 1 -14 9 -14 7 0 21 -17 30 -38 19 -41 85
-121 72 -87 -4 11 -20 56 -36 100 -51 138 -39 252 30 270 14 3 22 13 22 26 0
16 3 19 13 11 8 -7 18 -6 31 3 13 10 24 11 41 3 24 -11 53 -63 42 -75 -4 -3 7
-23 23 -43 17 -21 30 -45 30 -54 0 -19 20 -22 20 -3 0 6 7 3 15 -8 38 -51 61
-75 71 -75 7 0 14 -7 18 -15 3 -8 11 -15 17 -15 6 0 27 -14 46 -30 19 -17 39
-28 44 -24 6 3 27 -13 48 -36 30 -34 39 -39 44 -26 4 9 4 23 0 32 -5 12 -1 15
13 11 34 -9 114 -18 114 -13 0 3 -15 12 -34 20 -18 8 -59 40 -91 72 l-58 57 6
66 c7 79 30 131 58 131 16 0 19 5 14 20 -4 13 -2 20 6 20 28 0 77 -52 114
-123 l40 -75 -30 -24 c-16 -13 -36 -28 -44 -35 -9 -6 -14 -13 -11 -16 11 -11
130 19 152 38 23 20 52 38 100 62 15 8 30 23 33 34 4 10 20 34 36 51 16 18 36
47 45 66 21 45 37 156 31 213 -4 32 -2 51 7 58 15 13 26 4 26 -21 0 -11 7 -18
18 -18 49 0 57 -141 16 -272 -15 -46 -40 -109 -56 -142 -16 -32 -28 -60 -25
-62 9 -9 143 134 155 166 29 75 41 128 46 202 6 96 -11 162 -65 238 -22 31
-39 64 -39 74 0 16 5 17 43 10 23 -5 57 -8 75 -8 17 0 32 -3 32 -8 0 -4 14 -8
30 -8 20 0 30 5 30 15 0 22 21 18 27 -5 3 -11 11 -20 18 -20 6 0 22 9 35 20
13 11 31 20 41 20 10 0 20 4 24 10 3 5 11 8 18 6 7 -1 9 -1 5 1 -17 10 -6 21
42 43 28 13 50 26 50 30 0 3 -53 6 -117 6 -82 0 -135 5 -174 17 -57 17 -99 50
-80 62 6 3 11 1 11 -4 0 -6 10 -11 23 -11 16 0 27 11 40 39 25 55 21 92 -14
142 -17 24 -38 56 -47 71 -9 16 -20 28 -24 28 -14 0 -60 -71 -73 -112 -10 -35
-10 -48 2 -76 13 -31 13 -33 -5 -23 -26 14 -33 24 -96 135 -75 132 -74 166 8
179 43 7 108 38 113 54 2 6 -14 5 -43 -5 -69 -23 -128 -8 -168 41 -25 32 -28
40 -16 47 19 12 28 2 32 -35 2 -23 9 -31 27 -33 25 -4 44 15 36 35 -3 8 7 12
29 11 18 -1 38 2 43 5 6 4 17 0 24 -9 7 -8 24 -14 38 -13 38 2 89 -11 102 -27
16 -20 29 -17 29 6 0 24 6 25 26 5 9 -8 26 -15 40 -15 16 0 24 -6 24 -17 1
-17 1 -17 11 -1 7 14 14 15 29 8 11 -6 29 -15 40 -20 14 -7 27 -7 38 -1 13 7
23 4 39 -11 21 -20 63 -18 63 3 0 5 5 9 10 9 6 0 10 -9 10 -21 0 -16 4 -20 18
-14 44 17 72 18 72 2 0 -21 14 -28 63 -32 23 -2 43 -4 45 -5 1 -2 5 -3 10 -5
4 -1 14 -4 22 -7 41 -16 50 -16 58 -2 7 13 13 13 35 3 14 -6 25 -15 22 -18 -2
-4 6 -13 17 -20 18 -11 20 -11 14 4 -5 14 -2 16 16 10 13 -3 30 -7 38 -7 23 0
416 -133 540 -183 62 -25 117 -45 123 -44 18 0 -95 55 -218 105 -60 24 -119
49 -130 54 -11 5 -94 37 -185 70 -91 34 -174 65 -185 69 -53 22 -412 125 -535
154 -377 88 -663 131 -970 143 -96 4 -152 11 -167 20 -24 15 -57 112 -68 194
-3 25 -8 68 -12 95 -8 70 -3 229 8 233 5 2 9 23 9 46 0 28 7 52 20 69 11 14
20 30 20 36 0 7 7 14 15 17 8 4 15 12 15 20 0 20 98 116 105 103 5 -6 12 -6
21 2 11 9 18 9 26 1 15 -15 58 -15 58 0 0 6 7 4 18 -5 25 -22 42 -21 42 2 0
15 7 19 35 19 22 0 35 -5 35 -13 0 -13 47 -14 68 -1 6 3 13 2 16 -3 4 -5 26
-9 51 -9 32 0 45 4 48 16 4 15 5 15 6 1 1 -12 8 -15 26 -11 16 3 25 0 25 -8 0
-7 7 -10 16 -6 9 4 23 1 30 -5 8 -6 21 -8 30 -5 9 3 27 -3 41 -14 16 -12 34
-18 47 -14 17 4 25 -1 34 -20 6 -14 19 -26 28 -26 10 0 25 -7 35 -16 21 -19
109 -10 109 12 0 7 16 16 35 20 20 3 35 12 35 20 0 8 9 14 20 14 13 0 28 12
38 30 9 16 20 30 25 30 4 0 7 6 7 13 0 18 58 59 72 51 6 -4 17 1 24 10 8 11
14 13 19 6 4 -6 17 1 33 20 15 16 31 30 36 30 16 0 56 51 56 71 0 14 6 19 18
17 24 -4 52 19 46 37 -3 7 -1 16 5 20 6 3 11 17 11 30 0 13 4 26 8 29 12 7 69
125 78 159 3 16 12 31 19 33 7 3 15 15 18 26 3 11 10 17 17 13 6 -3 19 4 30
17 24 29 25 89 1 143 l-18 40 -37 -38 c-36 -38 -49 -88 -26 -102 6 -3 10 -11
10 -16 0 -6 -5 -7 -10 -4 -6 3 -13 -1 -16 -10 -8 -19 -19 0 -48 80 -10 28 -29
67 -42 87 -29 46 -32 103 -6 132 22 25 42 90 42 136 0 18 8 54 17 81 17 48 17
49 -4 70 -30 31 -41 18 -42 -53 -1 -94 -8 -139 -22 -152 -9 -8 -11 -7 -6 6 3
9 -1 22 -9 29 -14 12 -14 14 2 26 25 18 11 27 -18 12 -12 -7 -32 -13 -42 -14
-43 -4 -58 -82 -24 -122 16 -20 -6 -16 -46 8 -36 21 -49 60 -25 74 6 5 8 22 4
47 -5 29 -4 39 4 34 6 -4 11 -26 11 -49 0 -28 3 -38 10 -31 13 13 14 52 5 116
-7 46 -6 48 24 65 18 10 40 24 49 31 15 12 13 12 -13 6 -83 -22 -135 5 -135
68 0 33 36 92 51 83 5 -4 9 1 9 9 0 28 21 28 45 0 20 -23 26 -26 39 -15 9 8
16 19 16 25 0 7 9 31 20 54 25 51 20 62 -26 62 -38 0 -74 -29 -74 -59 0 -10
-6 -21 -13 -24 -10 -4 -13 2 -9 20 4 22 2 24 -16 19 -18 -6 -64 16 -92 44 -3
3 -31 22 -62 43 -64 41 -75 71 -33 87 14 5 25 14 25 20 0 19 40 50 65 50 14 0
28 7 31 15 4 8 12 15 19 15 10 0 45 66 45 85 0 3 -14 5 -30 5 -23 0 -33 -6
-40 -24 -14 -37 -58 -66 -99 -66 -32 1 -34 2 -18 14 20 16 23 65 4 90 -12 17
-16 17 -71 1 -31 -9 -59 -15 -61 -13 -1 1 -7 24 -12 50 -10 47 -3 68 23 68 18
0 25 27 14 55 -19 51 -54 15 -69 -71 -10 -55 -9 -68 10 -115 11 -30 28 -62 36
-71 9 -10 13 -18 10 -18 -3 0 -1 -15 4 -32 6 -22 6 -48 -2 -78 -10 -39 -9 -51
5 -77 21 -41 20 -46 -4 -38 -38 12 -61 -5 -87 -63 -25 -56 -21 -71 16 -72 7 0
11 -6 8 -13 -4 -10 3 -12 25 -9 19 3 32 12 35 23 3 11 9 19 14 19 5 0 9 10 9
23 0 12 4 28 9 36 11 16 27 -89 18 -113 -7 -17 -89 -32 -114 -21 -18 8 -27 10
-49 13 -6 1 -14 17 -17 35 -6 41 -74 185 -100 214 -31 35 -32 123 -1 123 8 0
14 7 14 15 0 8 6 14 13 12 11 -2 17 23 19 85 1 20 8 30 29 39 31 12 35 19 19
35 -7 7 -2 23 15 49 31 45 60 113 52 122 -13 12 -37 -7 -37 -30 0 -46 -21 -59
-93 -60 -69 -1 -78 -6 -52 -27 19 -16 19 -30 1 -30 -19 0 -78 69 -70 81 6 11
-13 39 -27 39 -18 0 -8 -33 26 -85 20 -29 42 -59 50 -65 8 -7 15 -18 15 -25 0
-8 6 -15 13 -18 20 -7 -2 -22 -81 -55 l-73 -31 -48 27 c-97 54 -97 54 -83 99
6 21 24 50 38 64 l27 24 -5 -27 c-6 -30 2 -34 32 -18 16 9 20 7 24 -12 3 -13
7 -35 11 -50 3 -16 11 -28 19 -28 16 0 15 86 -2 117 -15 27 -16 60 -1 68 6 4
8 13 5 20 -3 8 2 19 10 26 11 9 19 8 36 -7 20 -19 21 -19 13 4 -5 17 -2 27 12
37 10 7 15 17 10 21 -4 4 1 16 10 26 12 14 14 21 5 30 -16 16 -41 -7 -35 -32
4 -13 -4 -23 -27 -35 -18 -9 -33 -15 -34 -13 -1 2 -8 16 -16 31 -13 26 -18 28
-55 23 -36 -6 -41 -4 -51 19 -9 19 -9 27 2 36 20 16 18 75 -2 83 -11 4 -15 2
-11 -8 3 -8 -3 -25 -13 -39 -22 -28 -17 -95 10 -124 9 -10 25 -31 35 -46 l18
-28 -46 -67 c-25 -37 -48 -78 -52 -91 -6 -21 -9 -22 -22 -8 -10 10 -12 20 -7
29 28 42 42 195 24 244 -6 14 -10 38 -10 53 0 16 -7 34 -14 41 -8 6 -20 36
-26 65 -6 29 -17 59 -25 65 -8 6 -12 17 -9 24 10 25 -27 49 -65 42 -43 -7 -73
-32 -52 -45 8 -5 11 -16 8 -25 -8 -20 29 -60 48 -52 20 7 43 -25 51 -72 4 -23
11 -42 17 -42 8 0 8 -3 0 -11 -7 -7 -6 -23 5 -53 14 -38 14 -51 2 -100 -16
-67 -51 -107 -112 -127 -37 -12 -42 -11 -54 6 -8 11 -42 48 -75 83 -34 36 -59
71 -57 80 2 9 16 23 31 30 39 19 53 4 61 -67 8 -67 42 -109 88 -109 27 1 36
15 44 68 2 14 6 42 10 62 5 32 2 41 -22 63 -16 15 -34 23 -44 20 -13 -4 -19 1
-22 20 -4 16 -1 25 7 25 9 0 13 14 12 43 0 33 -6 47 -29 65 -33 28 -45 23 -54
-23 -7 -41 -21 -45 -30 -11 -3 13 -17 34 -30 47 -21 19 -28 21 -43 12 -25 -16
-71 4 -71 31 0 14 3 16 14 7 11 -9 16 -2 26 36 19 69 9 106 -21 81z m17 -195
c1 -13 7 -29 14 -38 7 -8 9 -15 4 -15 -9 0 -54 64 -54 76 0 3 8 4 18 2 9 -2
17 -13 18 -25z m-70 -55 c-2 -9 2 -19 9 -22 9 -3 12 -27 10 -88 -1 -46 0 -87
3 -93 11 -18 13 -94 2 -100 -32 -20 -71 50 -43 78 12 12 8 20 -27 56 -23 23
-47 40 -54 38 -7 -3 -19 -1 -27 4 -12 7 -11 11 4 26 11 11 17 13 17 5 0 -7 4
-11 10 -7 5 3 7 12 3 20 -3 9 1 15 11 15 8 0 23 12 33 28 10 15 21 29 25 32 3
3 6 12 6 20 -1 8 0 26 1 40 3 24 3 24 12 -5 5 -16 7 -38 5 -47z m-303 -70 c8
-28 5 -31 -18 -14 -10 7 -15 18 -11 24 11 18 23 14 29 -10z m180 -127 c-3 -30
-1 -57 7 -71 l13 -24 -31 25 c-26 20 -31 31 -31 70 -1 52 3 59 29 52 16 -4 18
-12 13 -52z m-698 -49 c-6 -14 -8 -13 -16 7 -7 18 -6 27 3 32 15 10 23 -14 13
-39z m490 -2 c3 -5 -1 -10 -10 -10 -9 0 -13 5 -10 10 3 6 8 10 10 10 2 0 7 -4
10 -10z m-805 -10 c0 -5 -4 -10 -10 -10 -5 0 -10 5 -10 10 0 6 5 10 10 10 6 0
10 -4 10 -10z m877 -22 c-9 -21 -20 -32 -31 -32 -16 2 -16 1 -1 -16 13 -15 14
-23 5 -39 -14 -27 -30 -167 -23 -203 10 -50 23 -29 23 35 0 43 6 75 20 102 11
22 20 44 20 50 0 6 6 20 14 31 14 18 15 18 28 1 13 -18 15 -18 28 -2 13 15 15
15 31 -6 13 -18 20 -20 31 -12 16 14 50 -7 46 -28 -2 -9 6 -14 19 -14 12 0 38
-16 58 -35 19 -18 38 -31 41 -27 9 9 -22 54 -73 104 -24 24 -43 45 -43 48 0 3
18 -5 40 -17 22 -13 40 -29 40 -35 0 -17 76 -50 119 -52 38 -2 61 -16 61 -37
0 -21 -18 -17 -25 6 -4 11 -11 18 -16 14 -5 -3 -7 -9 -4 -14 3 -5 7 -34 8 -64
3 -55 -3 -64 -48 -70 -28 -4 -37 -20 -32 -57 6 -45 -1 -47 -52 -20 -33 17 -33
19 -13 25 16 5 22 15 22 36 0 37 -16 47 -41 24 -13 -12 -18 -26 -15 -40 4 -13
1 -24 -7 -27 -24 -9 9 -42 58 -58 27 -9 54 -24 61 -34 7 -10 28 -20 46 -24 23
-5 33 -13 33 -26 1 -11 12 -32 25 -46 14 -15 39 -50 55 -78 17 -29 37 -51 47
-51 19 0 27 -21 25 -69 -2 -29 -8 -37 -42 -55 -52 -28 -178 -31 -233 -6 -45
21 -145 124 -140 147 4 22 53 57 68 48 8 -5 9 -10 1 -18 -13 -13 -15 -67 -2
-67 5 0 11 -10 13 -22 2 -13 11 -24 23 -26 11 -2 27 -11 37 -19 11 -9 18 -11
23 -4 11 18 23 12 18 -9 -7 -26 5 -25 34 2 27 25 31 89 9 142 -17 42 -65 64
-102 47 -14 -6 -39 -11 -57 -11 -18 0 -43 -7 -56 -16 -27 -19 -36 -12 -50 40
-9 33 -7 42 11 67 12 16 27 29 34 29 7 0 10 8 7 19 -3 10 0 22 6 25 16 10 13
43 -6 84 -18 40 -30 52 -52 52 -8 0 -11 -6 -7 -16 4 -10 -1 -37 -10 -61 -16
-42 -16 -46 0 -74 9 -16 14 -34 10 -41 -5 -7 -10 -4 -15 10 -16 42 -27 21 -31
-55 -2 -43 0 -80 3 -83 9 -8 54 -124 51 -132 -1 -5 7 -17 18 -28 11 -11 20
-26 20 -32 0 -10 -3 -9 -9 1 -7 11 -10 11 -17 0 -4 -7 -3 -14 4 -17 7 -2 12
-9 12 -15 0 -6 7 -18 16 -28 26 -29 8 -42 -48 -35 -48 7 -50 6 -61 -24 -14
-37 -33 -38 -69 -3 l-28 27 -16 -22 c-19 -27 -34 -28 -34 -3 0 16 17 42 80
118 14 17 12 23 -6 23 -11 0 -14 5 -9 18 4 9 11 31 15 47 4 17 11 39 17 50 6
11 9 85 8 170 l-3 151 26 12 c14 7 31 12 37 12 5 0 18 18 28 41 14 33 16 47 7
73 -10 31 -65 94 -74 85 -2 -2 -11 -28 -20 -57 -14 -48 -14 -58 -1 -89 15 -35
13 -53 -6 -53 -5 0 -9 7 -9 16 0 9 -6 14 -12 11 -9 -2 -13 -34 -14 -108 -2
-108 -11 -205 -20 -221 -3 -5 -11 -5 -18 1 -6 6 -28 12 -48 14 -20 2 -43 8
-50 14 -27 21 -59 25 -83 9 -32 -21 -45 -46 -62 -120 -23 -105 -24 -125 -1
-137 30 -16 13 -24 -21 -9 -33 13 -35 19 -51 155 -11 89 -11 90 13 111 29 25
60 80 54 97 -2 7 -11 -2 -19 -18 -9 -17 -26 -39 -38 -50 l-23 -20 7 23 c6 19
4 22 -17 22 -15 0 -28 -8 -34 -21 -9 -22 -10 -21 -46 11 -56 49 -57 28 -2 -27
40 -40 47 -54 47 -85 -1 -20 -9 -56 -19 -79 l-19 -42 -63 56 c-35 32 -67 57
-72 57 -5 0 -6 -13 -3 -30 5 -24 3 -30 -11 -30 -14 0 -16 6 -11 34 8 41 -6 79
-45 123 -31 36 -30 58 2 48 10 -4 24 -3 31 1 7 5 26 7 41 5 19 -2 36 4 48 18
11 12 24 22 29 22 20 3 26 5 60 19 19 7 38 18 42 24 4 6 12 5 21 -2 8 -7 22
-10 31 -6 9 3 23 1 30 -5 22 -18 64 -3 64 22 0 12 3 32 7 43 5 16 2 23 -14 27
-24 6 -28 27 -5 27 20 0 71 50 76 76 2 10 10 18 17 16 7 -1 10 2 7 6 -8 13 31
45 44 37 9 -5 9 -10 1 -18 -6 -6 -11 -17 -11 -25 0 -11 3 -12 14 -3 17 14 21
8 30 -40 5 -28 2 -42 -14 -62 -22 -27 -20 -47 4 -47 19 0 49 67 48 105 -1 34
-19 110 -34 141 -12 25 2 59 36 86 18 15 19 19 6 27 -16 11 -14 14 32 47 45
31 50 30 35 -8z m401 -27 c3 -8 -1 -12 -9 -9 -7 2 -15 10 -17 17 -3 8 1 12 9
9 7 -2 15 -10 17 -17z m-1234 -66 c18 -18 27 -19 24 -2 -3 13 8 13 67 -2 22
-6 71 -11 109 -11 58 0 67 -2 62 -16 -4 -9 2 -23 13 -32 20 -17 20 -18 -3
-102 -12 -47 -30 -102 -39 -122 -16 -37 -17 -38 -70 -38 -84 0 -167 36 -167
72 0 11 33 -2 47 -19 7 -9 24 -13 45 -11 36 3 36 4 39 108 1 50 -24 80 -67 80
-12 0 -26 5 -29 10 -3 6 -24 10 -46 10 -36 0 -39 2 -39 29 0 59 22 77 54 46z
m2200 -49 c3 -14 15 -28 26 -31 20 -6 25 -16 14 -28 -7 -6 -84 42 -84 52 0 9
22 31 31 31 4 0 10 -11 13 -24z m-772 -21 c35 14 50 -49 36 -144 l-10 -67 -59
-18 c-89 -29 -104 -19 -104 73 0 59 3 71 16 71 10 0 31 23 49 50 24 38 36 48
45 40 7 -6 19 -8 27 -5z m-1426 -26 c4 -7 -1 -16 -10 -21 -9 -5 -16 -22 -16
-38 0 -44 -17 -36 -25 11 -5 30 -3 44 6 50 19 12 37 11 45 -2z m1883 -12 c-9
-7 -22 -24 -30 -39 -14 -27 -14 -27 -38 -9 l-25 19 40 20 c45 24 80 30 53 9z
m-2248 -20 c-1 -12 -15 -9 -19 4 -3 6 1 10 8 8 6 -3 11 -8 11 -12z m862 -32
c4 -8 2 -17 -3 -20 -6 -4 -10 -4 -10 -1 0 2 -3 11 -6 20 -3 9 -2 16 4 16 5 0
12 -7 15 -15z m1787 -15 c0 -5 -8 -10 -17 -10 -15 0 -16 2 -3 10 19 12 20 12
20 0z m-2624 -48 c-6 -5 -36 23 -36 34 0 4 9 -1 20 -11 11 -10 18 -20 16 -23z
m697 -24 c3 -21 2 -38 -3 -38 -5 0 -15 -3 -23 -6 -12 -4 -15 4 -15 43 1 78 29
79 41 1z m1311 46 c21 -20 20 -44 0 -44 -12 0 -15 -6 -10 -24 6 -25 -8 -44
-19 -26 -8 13 -45 13 -45 0 0 -19 -16 -10 -39 21 -24 32 -22 50 4 29 12 -10
15 -10 15 1 0 15 49 58 67 59 6 0 19 -7 27 -16z m-424 -40 c0 -8 -4 -12 -10
-9 -5 3 -10 10 -10 16 0 5 5 9 10 9 6 0 10 -7 10 -16z m453 -66 c-6 -28 -4
-31 15 -26 23 6 26 1 22 -39 -1 -13 2 -23 7 -23 5 0 17 -15 27 -34 10 -19 27
-36 37 -39 12 -3 17 -11 14 -19 -4 -9 7 -24 29 -39 25 -17 34 -29 30 -41 -4
-13 2 -21 21 -28 15 -6 31 -7 37 -4 5 3 15 -1 21 -9 7 -8 21 -17 32 -19 31 -5
30 -35 -3 -66 -51 -48 -90 -82 -95 -82 -6 0 -26 50 -30 76 -2 12 -17 37 -34
57 -25 29 -31 46 -37 106 -4 39 -12 74 -18 77 -7 5 -9 -6 -6 -31 4 -34 1 -38
-29 -53 -35 -17 -44 -47 -21 -70 10 -10 10 -15 -2 -22 -27 -18 -60 -11 -69 13
-5 13 -16 29 -25 36 -14 12 -16 11 -16 -6 0 -10 6 -31 13 -46 11 -25 17 -27
70 -27 43 0 57 -4 57 -14 0 -8 9 -18 21 -21 19 -6 20 -13 16 -90 -3 -48 -1
-85 5 -87 15 -5 -1 -32 -26 -44 -33 -15 -50 1 -33 30 19 35 35 86 26 86 -4 0
-20 -5 -34 -12 -18 -8 -25 -19 -25 -39 0 -19 -9 -34 -29 -48 -32 -23 -67 -28
-68 -8 0 6 -4 20 -8 30 -6 13 -2 20 12 23 17 5 22 17 28 76 6 61 4 73 -13 92
-18 20 -31 57 -35 99 -2 23 -15 22 -37 -5 -17 -22 -17 -21 -23 43 -3 35 -4 89
-2 119 2 30 4 62 4 70 1 21 38 43 47 28 4 -7 3 -8 -4 -4 -13 8 -15 -4 -6 -28
6 -15 8 -15 19 1 13 17 14 16 23 -7 7 -18 6 -35 -4 -59 -16 -39 -18 -91 -4
-91 6 0 13 8 17 18 4 9 17 26 29 36 19 16 21 23 12 40 -11 21 -11 21 11 2 11
-11 21 -29 21 -41 0 -14 8 -25 20 -28 27 -7 26 15 -4 75 -18 37 -22 59 -18 98
2 27 8 50 13 50 5 0 6 -14 2 -32z m-1893 -39 c0 -27 56 -27 65 0 9 29 31 32
45 6 18 -34 8 -51 -47 -79 -26 -13 -72 -40 -102 -60 -60 -41 -55 -43 -96 36
-32 61 -31 73 5 95 17 9 30 21 30 25 0 4 9 8 20 8 13 0 20 -7 20 -20 0 -29 17
-25 24 6 6 21 9 24 21 14 8 -7 15 -21 15 -31z m2030 -11 c25 -52 25 -56 -1
-32 -23 21 -39 54 -32 67 8 13 12 8 33 -35z m-417 -87 c-3 -28 -10 -54 -14
-57 -14 -8 -78 89 -79 118 0 22 5 27 28 30 17 2 35 -4 49 -18 20 -18 22 -27
16 -73z m922 19 c21 -23 14 -46 -20 -62 -31 -14 -31 -13 -40 40 -6 40 -5 42
18 42 13 0 32 -9 42 -20z m-2225 -26 c0 -3 -9 -19 -21 -35 -32 -45 -34 -87 -7
-146 25 -57 32 -62 59 -37 19 17 39 11 39 -12 0 -17 4 -17 31 -1 16 9 23 9 26
0 2 -6 15 -23 28 -37 13 -14 31 -42 41 -61 9 -19 24 -37 34 -40 11 -3 17 -12
14 -18 -5 -15 67 -57 97 -57 10 0 23 -9 28 -19 8 -14 21 -19 46 -18 44 1 92
-41 93 -82 1 -33 -41 -80 -147 -166 l-69 -55 -32 30 c-36 33 -100 111 -100
121 0 4 10 9 21 12 13 4 19 11 16 19 -3 9 7 19 27 27 17 7 41 18 53 23 18 9
27 8 43 -7 11 -10 20 -22 20 -27 0 -17 28 -38 49 -38 16 0 21 6 21 28 0 15 5
33 11 39 7 7 3 17 -17 32 -32 25 -57 27 -75 5 -11 -14 -13 -14 -21 1 -7 12
-19 14 -58 9 l-49 -6 6 36 c6 40 -17 86 -43 86 -8 0 -28 7 -44 15 -25 13 -29
22 -32 62 l-3 48 -18 -32 c-9 -18 -20 -56 -25 -85 l-7 -53 -53 155 c-30 85
-56 170 -59 188 -8 47 21 102 52 102 14 0 25 -3 25 -6z m-485 -38 c19 -45 25
-80 15 -96 -5 -7 -11 8 -17 41 -6 30 -14 62 -18 72 -4 9 -4 17 -1 17 4 0 13
-15 21 -34z m1139 -76 c22 -22 -41 -150 -74 -150 -23 0 -26 13 -6 29 20 17 29
81 16 115 -10 28 -10 29 22 22 18 -3 37 -11 42 -16z m-838 -25 c4 -8 14 -15
23 -15 30 0 73 -118 85 -230 6 -52 5 -54 -9 -29 -11 20 -20 25 -39 22 -13 -3
-26 -14 -29 -24 -3 -10 -13 -19 -22 -19 -14 0 -16 6 -11 35 4 20 4 45 1 56
-10 31 -61 51 -124 48 -77 -3 -111 0 -111 9 0 4 14 22 30 40 17 18 30 40 30
48 0 8 4 13 9 10 5 -3 19 5 32 18 13 13 28 22 35 19 7 -2 25 2 41 11 36 19 52
20 59 1z m2482 -30 c12 -25 22 -49 22 -55 0 -5 -16 -27 -35 -48 -33 -37 -55
-80 -55 -105 0 -7 10 6 23 28 23 41 70 75 84 62 4 -5 -7 -19 -25 -33 -20 -16
-32 -34 -32 -50 0 -14 -5 -23 -12 -21 -13 2 -14 -10 -3 -53 6 -22 3 -20 -27
13 -22 26 -38 36 -49 32 -26 -10 -42 -51 -36 -89 3 -20 3 -36 -1 -36 -4 1 -37
57 -74 126 -57 106 -66 128 -56 144 18 28 81 60 114 57 23 -2 28 2 26 17 -3
14 1 18 15 14 10 -3 34 5 53 18 19 13 37 23 40 23 3 0 15 -20 28 -44z m-841
-37 c-3 -8 -6 -5 -6 6 -1 11 2 17 5 13 3 -3 4 -12 1 -19z m-2037 -50 c0 -19
-2 -20 -10 -8 -13 19 -13 30 0 30 6 0 10 -10 10 -22z m890 -21 c0 -5 -4 -5
-10 -2 -5 3 -10 14 -10 23 0 15 2 15 10 2 5 -8 10 -19 10 -23z m210 -47 c0 -5
-7 -10 -16 -10 -8 0 -12 5 -9 10 3 6 10 10 16 10 5 0 9 -4 9 -10z m899 -9 c7
-13 7 -26 -2 -45 -14 -31 -27 -33 -49 -7 -19 23 -13 58 11 64 28 8 30 7 40
-12z m-1791 -111 c12 -11 22 -25 22 -30 0 -15 72 -31 87 -19 7 6 24 9 37 7 18
-4 26 0 29 14 3 10 14 18 26 18 19 0 21 -6 21 -62 0 -81 -35 -159 -79 -183
-38 -19 -40 -8 -5 20 l26 21 -27 32 c-26 31 -58 42 -70 23 -6 -10 -63 -41 -76
-41 -4 0 -20 25 -35 57 -29 58 -41 57 -30 -2 9 -45 79 -149 111 -163 15 -7 25
-18 22 -25 -2 -6 3 -17 10 -22 28 -21 12 -164 -29 -255 -7 -17 -16 -30 -20
-30 -4 0 -19 16 -33 35 -42 55 -60 141 -70 340 -3 72 -12 162 -20 200 -12 61
-11 76 2 118 9 26 21 47 29 47 8 0 14 6 15 13 1 6 8 -11 17 -40 10 -29 27 -62
40 -73z m839 114 c-3 -3 -12 -4 -19 -1 -8 3 -5 6 6 6 11 1 17 -2 13 -5z
m-1129 -26 c-3 -7 -15 -14 -29 -15 -14 -1 -17 0 -6 3 9 3 17 10 17 15 0 5 5 9
11 9 6 0 9 -6 7 -12z m1633 -68 c5 0 9 -46 9 -102 0 -128 2 -145 23 -185 16
-31 16 -33 -3 -43 -28 -15 -83 28 -69 53 17 29 13 81 -9 124 -12 23 -26 44
-32 48 -16 10 -12 45 5 45 19 0 19 14 0 30 -12 10 -11 17 12 51 l26 40 15 -31
c8 -16 18 -30 23 -30z m756 38 c-3 -8 -6 -5 -6 6 -1 11 2 17 5 13 3 -3 4 -12
1 -19z m-1609 -19 c-2 -6 -8 -10 -13 -10 -5 0 -11 4 -13 10 -2 6 4 11 13 11 9
0 15 -5 13 -11z m742 1 c0 -5 -9 -14 -20 -20 -22 -12 -27 -1 -8 18 14 14 28
16 28 2z m447 -12 c13 -12 23 -16 23 -9 0 7 5 9 11 5 8 -4 7 -9 -2 -15 -11 -7
-10 -12 7 -23 12 -9 25 -27 28 -41 4 -14 11 -25 16 -25 15 0 12 -30 -4 -36 -8
-3 -26 -23 -40 -45 -15 -21 -31 -39 -36 -39 -6 0 -44 17 -86 37 -96 47 -107
67 -75 129 15 28 31 44 42 44 11 0 28 9 39 20 26 26 48 25 77 -2z m650 -14
c-3 -20 0 -24 19 -24 14 0 24 -6 24 -14 0 -15 -10 -19 -70 -32 -47 -9 -109
-45 -116 -67 -8 -25 -34 -3 -34 29 0 19 7 26 31 31 19 3 34 14 39 28 5 12 16
25 24 28 9 4 16 15 16 26 0 15 7 19 36 19 33 0 36 -2 31 -24z m-1250 4 c4 -7
16 -17 26 -23 18 -10 26 -22 62 -97 l18 -37 -32 -56 c-36 -63 -33 -87 5 -40
19 23 26 27 33 16 6 -9 11 -10 15 -2 4 6 12 9 17 6 5 -4 9 5 9 19 0 16 6 26
14 26 8 0 17 6 19 13 4 9 8 8 16 -3 14 -19 14 -57 1 -65 -6 -4 -8 -16 -4 -27
5 -18 3 -20 -12 -13 -58 24 -118 6 -156 -46 -37 -52 -46 -80 -45 -147 0 -34
-2 -64 -5 -68 -4 -3 -2 -18 4 -34 6 -19 6 -41 0 -64 -6 -22 -7 -38 -1 -42 5
-3 9 -14 9 -25 0 -23 32 -26 72 -5 19 10 29 11 37 3 9 -9 16 -8 30 0 10 7 28
9 40 6 15 -4 21 -1 21 12 0 12 5 15 16 11 26 -10 45 12 37 43 -6 23 -5 25 11
12 19 -16 18 -17 36 29 8 19 18 38 22 41 5 3 10 30 11 60 1 48 -7 76 -41 142
-2 4 3 7 12 7 9 0 16 -5 16 -11 0 -6 9 -8 20 -4 11 4 20 2 20 -4 0 -6 6 -11
14 -11 8 0 18 -10 21 -22 4 -13 16 -42 26 -64 16 -34 19 -59 17 -130 l-3 -87
-70 -30 c-135 -56 -390 -80 -450 -42 -36 22 -54 139 -40 260 10 78 13 88 40
120 18 21 24 36 20 53 -3 13 1 32 10 45 19 27 19 80 0 143 -8 27 -15 63 -15
81 0 26 3 30 19 26 13 -3 21 2 26 16 7 24 20 27 32 9z m-643 -63 c13 -20 16
-45 14 -115 -2 -50 -4 -90 -5 -90 -2 0 -10 11 -19 25 -12 19 -17 50 -18 115
-1 50 2 90 5 90 4 0 14 -11 23 -25z m1581 -68 c-14 -42 -25 -86 -25 -99 -1
-71 -55 -53 -99 34 -17 32 -26 56 -20 52 6 -3 13 4 16 15 5 20 7 20 23 6 15
-14 19 -12 46 20 16 19 37 35 46 35 9 0 20 5 23 11 18 28 13 -6 -10 -74z m381
37 c2 -50 4 -55 13 -49 6 3 13 -11 16 -32 9 -53 9 -48 0 -153 l-8 -95 -11 50
c-13 58 -32 58 -28 0 3 -35 0 -41 -24 -52 -16 -7 -33 -13 -40 -13 -15 0 -23
-31 -17 -64 6 -28 21 -33 43 -13 12 10 12 9 1 -5 -18 -24 -67 -23 -115 3 -21
11 -45 19 -54 17 -23 -4 37 -59 81 -74 18 -6 32 -16 32 -22 0 -5 3 -14 8 -18
4 -4 7 0 7 9 0 29 25 19 37 -14 15 -38 11 -46 -61 -142 -51 -67 -51 -68 -91
-62 -39 6 -74 35 -75 63 0 7 -11 30 -25 50 -29 42 -31 52 -10 52 18 0 18 5 5
29 -8 15 -3 20 30 30 51 15 53 34 3 25 -33 -6 -36 -5 -31 14 9 32 -14 56 -45
48 -23 -5 -27 -3 -27 14 0 11 7 23 15 26 8 4 15 14 15 23 0 9 21 39 46 65 29
31 44 55 41 66 -7 26 67 37 90 15 8 -9 23 -13 31 -10 8 3 19 1 22 -6 16 -25
83 32 74 63 -3 9 0 19 6 23 5 3 10 37 10 75 0 37 3 76 6 85 10 25 29 12 30
-21z m-452 11 c-4 -8 -11 -15 -16 -15 -6 0 -5 6 2 15 7 8 14 15 16 15 2 0 1
-7 -2 -15z m727 0 c19 7 51 -27 47 -51 -2 -12 6 -20 28 -25 16 -5 40 -19 52
-31 19 -22 21 -35 23 -172 1 -116 -2 -151 -13 -163 -12 -12 -18 -11 -40 7 -15
11 -38 20 -53 20 -33 0 -82 -47 -90 -86 -4 -16 -14 -46 -22 -66 -16 -37 -15
-38 9 -63 14 -13 36 -29 49 -34 21 -9 22 -10 4 -10 -86 -3 -169 198 -164 399
3 88 21 170 39 170 5 0 11 12 14 26 4 16 13 25 24 23 32 -3 42 1 42 17 0 26
21 58 29 45 4 -6 14 -9 22 -6z m-2406 -52 c8 -33 52 -150 65 -175 5 -10 7 -24
4 -31 -3 -8 2 -17 10 -20 10 -4 16 -18 16 -36 0 -16 7 -36 15 -45 8 -8 15 -22
15 -31 0 -8 12 -20 26 -25 20 -8 24 -14 19 -33 -12 -37 -11 -42 7 -39 9 1 26
-10 37 -25 11 -16 25 -33 31 -40 5 -7 6 -14 2 -17 -8 -5 -169 -47 -190 -49 -7
-1 -27 30 -44 68 -17 39 -50 100 -74 136 -29 43 -46 83 -50 112 -6 42 -4 48
29 82 36 37 57 95 57 159 0 43 15 47 25 9z m1525 -62 c0 -5 16 -15 35 -21 39
-13 53 -29 35 -40 -9 -6 -9 -12 -1 -29 14 -26 14 -26 -42 -2 -54 23 -65 38
-41 55 12 9 14 15 6 20 -15 9 -16 26 -2 26 6 0 10 -4 10 -9z m-1746 -70 c-2
-3 -12 3 -21 12 -14 14 -14 18 -2 33 12 15 14 14 21 -12 4 -15 5 -30 2 -33z
m1934 -53 c-6 -18 -28 -21 -28 -4 0 9 7 16 16 16 9 0 14 -5 12 -12z m-2408 -5
c0 -5 -5 -15 -10 -23 -7 -12 -12 -12 -22 -2 -10 10 -10 15 2 22 18 12 30 13
30 3z m2058 -57 c3 -21 7 -24 20 -17 26 14 74 2 68 -16 -4 -9 1 -17 14 -20 11
-3 20 -14 20 -24 0 -12 7 -19 20 -19 15 0 19 -4 13 -14 -8 -14 -104 -90 -106
-84 -1 2 -15 41 -31 88 -16 47 -37 98 -48 115 -24 40 -23 51 5 33 12 -9 23
-27 25 -42z m-1048 -20 c0 -8 -7 -19 -15 -26 -17 -14 -20 -9 -29 55 l-7 40 26
-28 c14 -15 25 -34 25 -41z m2328 -46 c5 -30 7 -61 2 -68 -8 -16 -30 84 -29
132 0 26 2 28 9 11 4 -11 12 -45 18 -75z m-2078 23 c0 -10 -7 -40 -15 -67 -8
-27 -15 -80 -15 -118 0 -37 -4 -68 -9 -68 -14 0 -100 70 -112 91 -9 18 -4 28
38 73 26 30 56 65 66 80 20 30 47 35 47 9z m1549 -20 c0 -10 -4 -27 -8 -38 -7
-17 -9 -16 -13 10 -4 17 -4 33 -1 37 8 15 23 8 22 -9z m38 -35 c-3 -8 -6 -5
-6 6 -1 11 2 17 5 13 3 -3 4 -12 1 -19z m27 -121 c11 -72 10 -85 -1 -76 -7 6
-13 20 -13 31 0 10 -7 30 -16 43 -9 14 -14 32 -10 40 3 8 1 15 -4 15 -14 0
-12 24 2 38 19 19 28 0 42 -91z m-442 29 c-9 -15 -13 -61 -12 -120 1 -11 -7
-27 -17 -37 -17 -16 -21 -16 -73 2 -30 10 -65 19 -77 19 -29 0 -30 24 -2 44
12 8 27 25 33 38 6 13 21 24 33 26 12 2 25 11 28 20 3 9 20 27 38 38 l32 21
12 -21 c6 -11 9 -25 5 -30z m848 -43 c0 -15 -51 -76 -58 -69 -3 3 0 11 5 18
18 22 23 66 13 94 -8 20 -8 29 2 35 8 5 16 -4 25 -29 7 -20 13 -42 13 -49z
m-2695 47 c14 0 59 -85 71 -132 l6 -28 -57 0 c-82 0 -94 9 -85 65 4 25 16 55
27 68 11 12 19 28 17 35 -1 7 0 8 3 2 2 -5 11 -10 18 -10z m2293 -157 c-4 -39
-28 -42 -28 -4 0 21 5 31 16 31 11 0 14 -8 12 -27z m-413 -3 c-4 -6 -1 -17 5
-25 10 -12 9 -15 -3 -15 -22 0 -31 18 -17 35 14 17 24 20 15 5z m695 -10 c0
-5 -7 -10 -15 -10 -8 0 -15 5 -15 10 0 6 7 10 15 10 8 0 15 -4 15 -10z m-370
-70 c0 -11 -2 -20 -4 -20 -2 0 -11 -3 -20 -6 -11 -4 -16 0 -16 13 0 23 8 33
27 33 7 0 13 -9 13 -20z m-657 -17 c-7 -2 -19 -2 -25 0 -7 3 -2 5 12 5 14 0
19 -2 13 -5z m55 -1128 c25 -5 32 -3 32 9 0 20 19 21 26 2 4 -10 27 -13 87
-13 104 0 122 -6 152 -54 30 -47 31 -68 5 -119 -15 -29 -18 -50 -14 -82 4 -30
1 -49 -9 -63 -14 -19 -16 -18 -57 15 -58 48 -330 313 -330 321 0 4 8 5 19 2
10 -3 22 0 26 7 5 8 10 7 18 -3 7 -9 27 -18 45 -22z m-1000 -20 c29 -2 57 -7
62 -10 13 -8 13 -42 0 -50 -5 -3 -10 1 -10 11 0 13 -6 15 -32 10 -42 -8 -45
-13 -22 -31 26 -20 0 -19 -32 1 -23 15 -24 15 -18 0 4 -9 28 -28 54 -41 37
-19 49 -31 53 -54 4 -17 14 -43 24 -57 27 -42 25 -60 -11 -107 -19 -24 -37
-53 -40 -65 -8 -25 -36 -50 -36 -33 0 6 7 28 16 49 10 20 20 60 24 87 4 28 10
58 15 68 6 15 1 17 -41 16 -61 -1 -104 -25 -127 -71 -16 -34 -17 -39 -2 -73
18 -45 18 -45 1 -45 -16 0 -74 118 -82 165 -3 23 1 36 17 51 29 26 59 87 59
121 0 44 15 61 40 46 29 -19 33 -16 26 15 -4 17 -3 22 2 14 5 -7 32 -15 60
-17z m215 -5 c-1 -14 -9 -42 -18 -63 -16 -38 -16 -38 -68 -35 -40 2 -51 6 -48
18 2 8 6 36 8 61 l5 47 62 -2 c59 -1 61 -2 59 -26z m-373 -5 c19 -23 -14 -102
-53 -125 -17 -11 -32 -18 -34 -16 -1 1 3 16 9 34 11 28 10 34 -11 56 -27 28
-15 41 29 31 26 -6 30 -4 30 14 0 25 13 27 30 6z m771 -65 c14 -4 39 -15 56
-24 18 -9 38 -13 46 -10 8 3 17 -3 21 -13 4 -10 16 -34 26 -53 22 -39 26 -90
8 -108 -20 -20 -28 -14 -22 17 5 24 1 32 -19 45 -31 21 -61 11 -53 -18 20 -69
20 -73 -14 -80 -18 -3 -56 -6 -84 -7 l-51 0 35 -13 c19 -7 64 -14 100 -15 73
-2 87 -10 69 -39 -9 -14 -28 -23 -61 -27 -67 -10 -118 -57 -118 -110 0 -51 29
-115 52 -115 10 0 18 -4 18 -10 0 -30 -87 17 -135 72 -60 70 -106 179 -129
304 -12 67 -11 72 8 96 20 24 53 43 69 40 11 -3 8 13 -5 26 -9 9 -6 12 14 12
18 0 27 7 31 21 4 16 11 19 26 14 11 -3 29 -2 38 4 10 6 25 8 33 5 8 -3 27
-10 41 -14z m185 -76 c-7 -17 20 -38 40 -30 11 4 22 -1 31 -14 8 -11 21 -20
29 -20 8 0 14 -6 14 -14 0 -8 9 -18 20 -21 11 -3 20 -11 20 -16 0 -5 7 -9 15
-9 8 0 19 -9 25 -20 6 -12 23 -25 37 -31 14 -5 27 -18 30 -29 3 -11 11 -20 19
-20 7 0 25 -11 40 -25 26 -24 26 -26 9 -45 -24 -26 -32 -25 -39 6 -9 35 -31
24 -30 -15 2 -42 -13 -40 -70 10 -25 22 -46 37 -46 32 0 -18 32 -54 75 -83 52
-36 60 -58 45 -124 -8 -36 -8 -56 2 -82 6 -19 15 -34 18 -34 3 0 6 25 6 55 0
67 10 80 47 60 15 -7 27 -10 27 -4 0 20 18 7 36 -26 16 -31 34 -46 34 -30 0
16 -47 95 -76 128 -19 20 -34 40 -34 45 0 4 10 19 23 35 l22 27 37 -17 c21
-10 37 -21 38 -25 0 -8 46 -53 104 -103 38 -33 37 -41 -11 -99 -14 -17 -30
-41 -35 -55 l-11 -26 -7 33 c-11 46 -20 52 -20 11 -1 -52 -17 -110 -36 -128
-16 -15 -16 -15 -10 3 4 12 0 26 -10 37 -22 25 -30 24 -50 -6 -13 -20 -14 -28
-4 -40 7 -8 9 -15 6 -15 -22 0 -50 27 -77 76 -17 30 -34 53 -36 50 -3 -3 1
-26 8 -51 13 -44 44 -84 103 -132 26 -22 27 -25 19 -80 -4 -32 -8 -100 -8
-151 0 -50 -1 -92 -2 -92 -1 0 -10 15 -22 33 -11 17 -47 59 -81 92 -82 81 -84
85 -64 145 19 57 14 158 -11 214 -13 30 -13 29 -11 -34 3 -81 -11 -157 -30
-164 -11 -4 -13 0 -8 18 4 18 -1 29 -22 45 -34 27 -40 27 -48 -5 -4 -16 -1
-35 8 -49 16 -24 16 -24 -15 -13 -17 6 -57 35 -90 65 -32 30 -59 50 -59 43 0
-16 58 -98 95 -136 17 -17 29 -36 27 -42 -2 -7 1 -12 6 -12 6 0 12 4 14 10 2
5 8 6 14 2 12 -7 10 -32 -17 -165 -7 -37 -17 -67 -20 -67 -14 0 -108 80 -121
102 -28 49 -35 82 -25 120 8 32 6 44 -17 84 -43 77 -32 125 34 145 22 7 40 16
40 21 0 5 4 7 9 4 22 -14 73 10 120 55 32 30 56 46 66 43 9 -4 15 0 15 9 0 8
24 38 53 67 l52 52 -43 -22 c-24 -12 -45 -20 -47 -18 -1 2 -18 35 -39 73 -20
39 -52 87 -71 108 -20 21 -42 54 -50 73 -13 32 -13 38 1 60 14 20 15 31 5 71
-7 25 -21 57 -31 71 -11 13 -17 29 -14 34 8 13 36 -12 30 -28z m-636 11 c0
-12 -35 -75 -42 -75 -12 0 -40 59 -33 70 6 10 75 14 75 5z m1230 -235 c0 -12
-48 1 -61 16 -13 15 -4 34 17 34 8 0 14 6 14 13 1 12 30 -49 30 -63z m-1572
-82 c-3 -61 -4 -63 -31 -66 -47 -6 -60 4 -45 30 6 13 11 35 9 51 -2 20 3 29
21 36 46 19 49 15 46 -51z m945 10 c6 -70 1 -198 -8 -220 -8 -19 -71 -24 -109
-9 -18 7 -17 9 12 26 18 11 32 25 32 32 0 7 5 13 10 13 6 0 10 9 10 19 0 11 4
22 9 25 7 5 20 92 22 149 1 39 17 13 22 -35z m-878 21 c4 -6 13 -8 20 -5 14 5
65 -14 65 -25 0 -3 -19 -13 -42 -22 -42 -17 -57 -12 -58 20 0 6 -3 18 -6 27
-7 18 11 22 21 5z m988 -111 c43 -92 43 -104 -1 -121 -47 -19 -52 -12 -52 75
0 112 16 126 53 46z m277 -59 c0 -14 -17 -10 -23 5 -4 10 -1 13 9 9 7 -3 14
-9 14 -14z m160 -397 c0 -37 -7 -78 -17 -100 l-16 -37 -11 45 c-7 25 -20 63
-30 85 -24 55 -23 79 8 123 14 21 26 45 27 53 3 41 39 -115 39 -169z m-1554
51 c-7 -7 -26 7 -26 19 0 6 6 6 15 -2 9 -7 13 -15 11 -17z m1465 -215 c2 -20
1 -40 -3 -43 -3 -4 -8 16 -9 44 -2 27 -1 47 3 43 3 -4 8 -24 9 -44z"/>
<path d="M2170 4110 c0 -5 5 -10 11 -10 5 0 7 5 4 10 -3 6 -8 10 -11 10 -2 0
-4 -4 -4 -10z"/>
<path d="M2561 4014 c13 -16 39 -19 39 -5 0 5 -11 11 -25 13 -20 4 -23 3 -14
-8z"/>
<path d="M2311 3604 c0 -11 3 -14 6 -6 3 7 2 16 -1 19 -3 4 -6 -2 -5 -13z"/>
<path d="M1525 4369 c-4 -6 -5 -13 -2 -16 7 -7 27 6 27 18 0 12 -17 12 -25 -2z"/>
<path d="M3245 4270 c-3 -5 1 -10 9 -10 8 0 18 5 21 10 3 6 -1 10 -9 10 -8 0
-18 -4 -21 -10z"/>
<path d="M3070 4179 c0 -5 5 -7 10 -4 6 3 10 8 10 11 0 2 -4 4 -10 4 -5 0 -10
-5 -10 -11z"/>
<path d="M3780 3760 c0 -5 5 -10 10 -10 6 0 10 5 10 10 0 6 -4 10 -10 10 -5 0
-10 -4 -10 -10z"/>
<path d="M2250 3478 c0 -37 10 -58 27 -58 18 0 10 47 -13 70 -12 12 -14 11
-14 -12z"/>
<path d="M3400 2940 c0 -5 5 -10 11 -10 5 0 7 5 4 10 -3 6 -8 10 -11 10 -2 0
-4 -4 -4 -10z"/>
<path d="M1730 1344 c0 -8 5 -12 10 -9 6 3 10 10 10 16 0 5 -4 9 -10 9 -5 0
-10 -7 -10 -16z"/>
<path d="M2760 1040 c0 -5 5 -10 10 -10 6 0 10 5 10 10 0 6 -4 10 -10 10 -5 0
-10 -4 -10 -10z"/>
<path d="M2950 5019 c0 -11 5 -17 10 -14 6 3 10 13 10 21 0 8 -4 14 -10 14 -5
0 -10 -9 -10 -21z"/>
<path d="M3319 5026 c-1 -3 -2 -11 -3 -17 0 -7 -10 -15 -21 -19 -19 -7 -19 -7
3 -19 19 -10 22 -9 22 7 0 10 5 23 11 29 8 8 8 13 0 17 -6 4 -12 5 -12 2z"/>
<path d="M3537 5004 c-8 -8 1 -24 13 -24 4 0 10 7 14 15 5 15 -14 21 -27 9z"/>
<path d="M2660 4986 c0 -9 5 -16 10 -16 6 0 10 4 10 9 0 6 -4 13 -10 16 -5 3
-10 -1 -10 -9z"/>
<path d="M2290 4970 c0 -5 5 -10 10 -10 6 0 10 5 10 10 0 6 -4 10 -10 10 -5 0
-10 -4 -10 -10z"/>
<path d="M2360 4970 c0 -5 5 -10 10 -10 6 0 10 5 10 10 0 6 -4 10 -10 10 -5 0
-10 -4 -10 -10z"/>
<path d="M2957 4953 c-12 -12 -7 -22 8 -17 8 4 15 10 15 15 0 11 -14 12 -23 2z"/>
<path d="M2270 4930 c0 -5 5 -10 10 -10 6 0 10 5 10 10 0 6 -4 10 -10 10 -5 0
-10 -4 -10 -10z"/>
<path d="M2090 4910 c0 -5 5 -10 11 -10 5 0 7 5 4 10 -3 6 -8 10 -11 10 -2 0
-4 -4 -4 -10z"/>
<path d="M3825 4911 c-3 -5 -1 -12 5 -16 5 -3 10 1 10 9 0 18 -6 21 -15 7z"/>
<path d="M3240 4861 c6 -12 15 -21 20 -21 18 0 11 19 -11 30 -19 11 -20 10 -9
-9z"/>
<path d="M2220 4850 c0 -5 5 -10 10 -10 6 0 10 5 10 10 0 6 -4 10 -10 10 -5 0
-10 -4 -10 -10z"/>
<path d="M3635 4840 c-3 -5 1 -10 9 -10 9 0 16 5 16 10 0 6 -4 10 -9 10 -6 0
-13 -4 -16 -10z"/>
<path d="M2311 4814 c0 -11 3 -14 6 -6 3 7 2 16 -1 19 -3 4 -6 -2 -5 -13z"/>
<path d="M1975 4780 c3 -5 8 -10 11 -10 2 0 4 5 4 10 0 6 -5 10 -11 10 -5 0
-7 -4 -4 -10z"/>
<path d="M3817 4713 c-12 -11 -8 -23 8 -23 8 0 15 7 15 15 0 16 -12 20 -23 8z"/>
<path d="M3330 4560 c0 -5 5 -10 10 -10 6 0 10 5 10 10 0 6 -4 10 -10 10 -5 0
-10 -4 -10 -10z"/>
<path d="M3570 4470 c0 -5 5 -10 10 -10 6 0 10 5 10 10 0 6 -4 10 -10 10 -5 0
-10 -4 -10 -10z"/>
<path d="M4028 4473 c7 -3 16 -2 19 1 4 3 -2 6 -13 5 -11 0 -14 -3 -6 -6z"/>
<path d="M3960 4461 c0 -6 5 -13 10 -16 6 -3 10 1 10 9 0 9 -4 16 -10 16 -5 0
-10 -4 -10 -9z"/>
<path d="M1176 4451 c-4 -5 -2 -12 3 -15 5 -4 12 -2 15 3 4 5 2 12 -3 15 -5 4
-12 2 -15 -3z"/>
<path d="M3070 4440 c0 -5 5 -10 10 -10 6 0 10 5 10 10 0 6 -4 10 -10 10 -5 0
-10 -4 -10 -10z"/>
<path d="M4155 4410 c-3 -5 -1 -10 4 -10 6 0 11 5 11 10 0 6 -2 10 -4 10 -3 0
-8 -4 -11 -10z"/>
<path d="M931 4394 l-22 -16 22 -24 c28 -30 33 -30 54 2 13 20 14 28 4 40 -15
18 -29 18 -58 -2z"/>
<path d="M3340 4200 c0 -5 7 -10 15 -10 8 0 15 5 15 10 0 6 -7 10 -15 10 -8 0
-15 -4 -15 -10z"/>
<path d="M4890 4200 c0 -5 5 -10 10 -10 6 0 10 5 10 10 0 6 -4 10 -10 10 -5 0
-10 -4 -10 -10z"/>
<path d="M4960 4154 c0 -8 5 -12 10 -9 6 3 10 10 10 16 0 5 -4 9 -10 9 -5 0
-10 -7 -10 -16z"/>
<path d="M4150 4079 c0 -5 5 -7 10 -4 6 3 10 8 10 11 0 2 -4 4 -10 4 -5 0 -10
-5 -10 -11z"/>
<path d="M4415 4030 c12 -14 22 -17 30 -10 6 5 15 7 18 3 4 -3 7 -1 7 6 0 8
-7 10 -19 6 -11 -3 -22 -1 -26 5 -3 5 -11 10 -17 10 -6 0 -3 -9 7 -20z"/>
<path d="M4400 3960 c0 -5 5 -10 10 -10 6 0 10 5 10 10 0 6 -4 10 -10 10 -5 0
-10 -4 -10 -10z"/>
<path d="M4220 3945 c0 -8 7 -15 15 -15 8 0 15 7 15 15 0 8 -7 15 -15 15 -8 0
-15 -7 -15 -15z"/>
<path d="M4265 3920 c-3 -5 -1 -10 4 -10 6 0 11 5 11 10 0 6 -2 10 -4 10 -3 0
-8 -4 -11 -10z"/>
<path d="M4207 3903 c-9 -2 -15 -9 -12 -14 9 -14 22 -11 29 6 3 8 4 14 3 14
-1 -1 -10 -3 -20 -6z"/>
<path d="M4315 3839 c-4 -6 -4 -13 -1 -16 8 -8 36 5 36 17 0 13 -27 13 -35 -1z"/>
<path d="M4270 3829 c0 -5 5 -7 10 -4 6 3 10 8 10 11 0 2 -4 4 -10 4 -5 0 -10
-5 -10 -11z"/>
<path d="M3881 3811 c-8 -5 -10 -14 -7 -20 8 -13 46 -15 46 -2 0 16 -25 30
-39 22z"/>
<path d="M4627 3673 c-4 -3 -7 -10 -7 -14 0 -11 29 -19 35 -10 6 11 -20 33
-28 24z"/>
<path d="M4900 3569 c0 -5 5 -7 10 -4 6 3 10 8 10 11 0 2 -4 4 -10 4 -5 0 -10
-5 -10 -11z"/>
<path d="M4596 2962 c-3 -6 -1 -14 5 -17 15 -10 25 3 12 16 -7 7 -13 7 -17 1z"/>
<path d="M4625 2880 c-3 -5 -1 -10 4 -10 6 0 11 5 11 10 0 6 -2 10 -4 10 -3 0
-8 -4 -11 -10z"/>
<path d="M4830 2881 c0 -5 12 -19 26 -30 20 -16 30 -18 40 -10 16 13 9 30 -10
23 -7 -3 -19 2 -26 11 -14 17 -30 20 -30 6z"/>
<path d="M4765 2830 c-3 -5 -1 -10 4 -10 6 0 11 5 11 10 0 6 -2 10 -4 10 -3 0
-8 -4 -11 -10z"/>
<path d="M4785 2780 c-3 -5 -1 -10 4 -10 6 0 11 5 11 10 0 6 -2 10 -4 10 -3 0
-8 -4 -11 -10z"/>
<path d="M3980 2449 c0 -5 5 -7 10 -4 6 3 10 8 10 11 0 2 -4 4 -10 4 -5 0 -10
-5 -10 -11z"/>
<path d="M1800 2365 c-10 -13 -9 -15 9 -15 11 0 21 4 21 9 0 18 -18 21 -30 6z"/>
<path d="M1190 2350 c0 -5 5 -10 11 -10 5 0 7 5 4 10 -3 6 -8 10 -11 10 -2 0
-4 -4 -4 -10z"/>
<path d="M2975 2350 c3 -5 8 -10 11 -10 2 0 4 5 4 10 0 6 -5 10 -11 10 -5 0
-7 -4 -4 -10z"/>
<path d="M3504 2345 c-10 -8 -14 -14 -9 -14 6 0 19 6 29 14 11 8 15 15 10 15
-6 0 -19 -7 -30 -15z"/>
<path d="M1750 2340 c0 -5 4 -10 9 -10 6 0 13 5 16 10 3 6 -1 10 -9 10 -9 0
-16 -4 -16 -10z"/>
<path d="M1730 2275 c0 -8 5 -15 10 -15 6 0 10 7 10 15 0 8 -4 15 -10 15 -5 0
-10 -7 -10 -15z"/>
<path d="M2110 2190 c0 -5 5 -10 10 -10 6 0 10 5 10 10 0 6 -4 10 -10 10 -5 0
-10 -4 -10 -10z"/>
<path d="M3860 1900 c0 -5 5 -10 11 -10 5 0 7 5 4 10 -3 6 -8 10 -11 10 -2 0
-4 -4 -4 -10z"/>
<path d="M1718 1863 c7 -3 16 -2 19 1 4 3 -2 6 -13 5 -11 0 -14 -3 -6 -6z"/>
<path d="M3975 1850 c3 -5 13 -10 21 -10 8 0 12 5 9 10 -3 6 -13 10 -21 10 -8
0 -12 -4 -9 -10z"/>
<path d="M5038 1793 c6 -2 18 -2 25 0 6 3 1 5 -13 5 -14 0 -19 -2 -12 -5z"/>
<path d="M4193 1750 c27 -22 37 -25 37 -12 0 8 -43 32 -57 32 -3 0 6 -9 20
-20z"/>
<path d="M4850 1740 c0 -5 5 -10 11 -10 5 0 7 5 4 10 -3 6 -8 10 -11 10 -2 0
-4 -4 -4 -10z"/>
<path d="M4430 1720 c0 -5 4 -10 9 -10 6 0 13 5 16 10 3 6 -1 10 -9 10 -9 0
-16 -4 -16 -10z"/>
<path d="M1570 1690 c0 -5 5 -10 10 -10 6 0 10 5 10 10 0 6 -4 10 -10 10 -5 0
-10 -4 -10 -10z"/>
<path d="M4725 1690 c-3 -5 3 -10 14 -10 11 0 23 5 26 10 3 6 -3 10 -14 10
-11 0 -23 -4 -26 -10z"/>
<path d="M1175 1420 c-3 -5 -1 -10 4 -10 6 0 11 5 11 10 0 6 -2 10 -4 10 -3 0
-8 -4 -11 -10z"/>
<path d="M330 1250 c-19 -15 -21 -20 -8 -20 26 0 68 18 68 30 0 16 -33 11 -60
-10z"/>
<path d="M400 1235 c0 -8 7 -15 15 -15 8 0 15 7 15 15 0 8 -7 15 -15 15 -8 0
-15 -7 -15 -15z"/>
<path d="M2148 723 c6 -2 18 -2 25 0 6 3 1 5 -13 5 -14 0 -19 -2 -12 -5z"/>
</g>
</svg>
